<svg width="210" height="103" viewBox="0 0 210 103" fill="none" xmlns="http://www.w3.org/2000/svg">
<path d="M198.921 20.2336L206.66 14.489C207.28 14.2558 208.909 15.7662 208.523 16.6194L200.783 22.364C200.164 22.5971 198.418 20.7766 198.921 20.2336Z" fill="#633DCC"/>
<path d="M196.101 25.8959C197.03 25.546 195.787 23.1824 195.051 23.1058L186.108 27.5332C185.605 28.0762 186.732 30.1298 187.468 30.2068L196.101 25.8959Z" fill="#633DCC"/>
<path d="M182.319 32.4987C182.822 31.9553 182.122 30.0952 181.386 30.0186L172.403 33.3994C171.783 33.6326 172.717 36.1125 173.336 35.8795L182.319 32.4987Z" fill="#633DCC"/>
<path d="M158.033 35.6222L167.523 34.5281C168.259 34.6047 168.457 37.0082 167.837 37.2414L157.921 38.1421C157.185 38.065 157.297 35.5452 158.033 35.6222Z" fill="#633DCC"/>
<path d="M141.765 37.4979C141.222 36.9943 141.954 34.2414 142.807 34.6283L152.804 35.8208C153.463 36.6341 153.118 38.5341 152.188 38.8839L141.765 37.4979Z" fill="#633DCC"/>
<path d="M127.19 31.6577C127.782 31.9784 128.335 32.2731 128.863 32.5484C127.271 34.2869 125.081 35.4596 121.116 37.1292C120.505 37.3862 121.313 39.5323 122.049 39.6093C126.537 37.7522 128.996 36.3753 131.724 33.9586C133.276 34.6731 134.873 35.3188 136.998 36.1067C137.734 36.1834 138.699 34.0504 138.156 33.5471C134.29 32.2163 132.236 31.2787 128.775 29.2915C128.348 29.0979 126.764 31.4641 127.19 31.6577Z" fill="#633DCC"/>
<path d="M114.819 23.218C114.338 22.6912 116.287 20.5418 116.831 21.0453C120.268 24.5089 121.719 25.5764 124.511 27.357C125.054 27.8605 123.359 29.9883 122.499 29.5297C118.761 27.5349 117.286 25.9197 114.967 23.3797L114.819 23.218Z" fill="#633DCC"/>
<path d="M112.562 16.2811C112.336 11.8101 112.373 9.66817 115.297 5.69574C116.39 5.43554 117.622 6.23616 117.663 7.28279C115.498 10.9287 115.655 12.2854 115.39 16.2785C115.197 16.7051 112.912 17.2109 112.562 16.2811Z" fill="#633DCC"/>
<path d="M122.269 4.48744C120.486 4.45032 120.495 2.28712 121.955 1.77426C123.415 1.26139 128.08 1.44709 132.145 2.54028C133.114 3.237 132.575 5.56342 130.793 5.52629C127.487 4.12601 124.553 3.9814 122.269 4.48744Z" fill="#633DCC"/>
<path d="M136.296 6.99432C136.759 5.40435 138.308 4.82161 139.704 5.71194C141.663 9.3123 142.149 10.8167 143.087 14.7024C143.128 15.749 140.65 16.6817 139.873 15.5582C139.217 10.9215 137.966 9.55131 136.296 6.99432Z" fill="#633DCC"/>
<path d="M133.695 29.2095C136.343 26.2546 137.562 24.3357 139.222 20.4046C139.724 19.8613 141.973 21.1385 141.897 21.8753C140.435 26.0629 138.814 27.8514 136.06 30.7967C135.55 31.3424 133.618 29.9459 133.695 29.2095Z" fill="#633DCC"/>
<path d="M107.487 42.2587L116.779 38.7613C117.515 38.838 118.216 40.6981 117.713 41.2414L108.42 44.7388C107.684 44.6618 106.984 42.8017 107.487 42.2587Z" fill="#633DCC"/>
<path d="M92.345 46.1878C91.9185 45.9943 92.1477 43.7847 92.7673 43.5515C96.7699 43.873 98.9106 43.9431 102.181 43.1936C103.653 43.3475 104.043 45.3242 103.231 45.9839C98.5923 47.1066 96.5462 47.2796 92.345 46.1878Z" fill="#633DCC"/>
<path d="M77.4685 46.1241C76.9254 45.6204 77.4643 43.294 78.0839 43.061L87.4209 43.4401C88.2737 43.8268 87.8514 46.4632 87.232 46.6966L77.4685 46.1241Z" fill="#633DCC"/>
<path d="M63.2519 46.8736C62.2058 46.9132 62.0086 44.5099 62.9378 44.1602L72.6611 43.6862C73.2041 44.1895 73.2847 46.2828 72.6653 46.5161L63.2519 46.8736Z" fill="#633DCC"/>
<path d="M48.9227 50.1431C48.3031 50.3761 47.3697 47.8961 47.9893 47.663L57.7485 45.4056C58.368 45.1723 58.9917 47.7692 58.3722 48.0023L48.9227 50.1431Z" fill="#633DCC"/>
<path d="M34.5171 54.1492L43.343 49.4117C43.9625 49.1785 44.9722 50.9219 44.4695 51.4652L35.6436 56.2027C35.0241 56.4357 34.0142 54.6922 34.5171 54.1492Z" fill="#633DCC"/>
<path d="M22.5979 62.8823L30.1042 56.5179C30.7237 56.2848 31.8501 58.3381 31.3474 58.8815L24.6537 64.5861C24.1508 65.1291 22.4048 63.3088 22.5979 62.8823Z" fill="#633DCC"/>
<path d="M14.0541 74.9462L18.4587 66.9177C18.8447 66.0644 21.52 67.535 21.327 67.9618L16.9224 75.9903C16.1098 76.6499 14.0943 75.9927 14.0541 74.9462Z" fill="#633DCC"/>
<path d="M10.7358 83.9816L12.2401 79.5222L14.682 80.3728L13.3708 84.4056L22.2453 86.3745L8.669 101.04L2.17101 81.8961L10.7358 83.9816Z" fill="#633DCC"/>
<path d="M198.921 20.2336L206.66 14.489C207.28 14.2558 208.909 15.7662 208.523 16.6194L200.783 22.364C200.164 22.5971 198.418 20.7766 198.921 20.2336Z" stroke="#633DCC" stroke-width="2"/>
<path d="M196.101 25.8959C197.03 25.546 195.787 23.1824 195.051 23.1058L186.108 27.5332C185.605 28.0762 186.732 30.1298 187.468 30.2068L196.101 25.8959Z" stroke="#633DCC" stroke-width="2"/>
<path d="M182.319 32.4987C182.822 31.9553 182.122 30.0952 181.386 30.0186L172.403 33.3994C171.783 33.6326 172.717 36.1125 173.336 35.8795L182.319 32.4987Z" stroke="#633DCC" stroke-width="2"/>
<path d="M158.033 35.6222L167.523 34.5281C168.259 34.6047 168.457 37.0082 167.837 37.2414L157.921 38.1421C157.185 38.065 157.297 35.5452 158.033 35.6222Z" stroke="#633DCC" stroke-width="2"/>
<path d="M141.765 37.4979C141.222 36.9943 141.954 34.2414 142.807 34.6283L152.804 35.8208C153.463 36.6341 153.118 38.5341 152.188 38.8839L141.765 37.4979Z" stroke="#633DCC" stroke-width="2"/>
<path d="M127.19 31.6577C127.782 31.9784 128.335 32.2731 128.863 32.5484C127.271 34.2869 125.081 35.4596 121.116 37.1292C120.505 37.3862 121.313 39.5323 122.049 39.6093C126.537 37.7522 128.996 36.3753 131.724 33.9586C133.276 34.6731 134.873 35.3188 136.998 36.1067C137.734 36.1834 138.699 34.0504 138.156 33.5471C134.29 32.2163 132.236 31.2787 128.775 29.2915C128.348 29.0979 126.764 31.4641 127.19 31.6577Z" stroke="#633DCC" stroke-width="2"/>
<path d="M114.819 23.218C114.338 22.6912 116.287 20.5418 116.831 21.0453C120.268 24.5089 121.719 25.5764 124.511 27.357C125.054 27.8605 123.359 29.9883 122.499 29.5297C118.761 27.5349 117.286 25.9197 114.967 23.3797L114.819 23.218Z" stroke="#633DCC" stroke-width="2"/>
<path d="M112.562 16.2811C112.336 11.8101 112.373 9.66817 115.297 5.69574C116.39 5.43554 117.622 6.23616 117.663 7.28279C115.498 10.9287 115.655 12.2854 115.39 16.2785C115.197 16.7051 112.912 17.2109 112.562 16.2811Z" stroke="#633DCC" stroke-width="2"/>
<path d="M122.269 4.48744C120.486 4.45032 120.495 2.28712 121.955 1.77426C123.415 1.26139 128.08 1.44709 132.145 2.54028C133.114 3.237 132.575 5.56342 130.793 5.52629C127.487 4.12601 124.553 3.9814 122.269 4.48744Z" stroke="#633DCC" stroke-width="2"/>
<path d="M136.296 6.99432C136.759 5.40435 138.308 4.82161 139.704 5.71194C141.663 9.3123 142.149 10.8167 143.087 14.7024C143.128 15.749 140.65 16.6817 139.873 15.5582C139.217 10.9215 137.966 9.55131 136.296 6.99432Z" stroke="#633DCC" stroke-width="2"/>
<path d="M133.695 29.2095C136.343 26.2546 137.562 24.3357 139.222 20.4046C139.724 19.8613 141.973 21.1385 141.897 21.8753C140.435 26.0629 138.814 27.8514 136.06 30.7967C135.55 31.3424 133.618 29.9459 133.695 29.2095Z" stroke="#633DCC" stroke-width="2"/>
<path d="M107.487 42.2587L116.779 38.7613C117.515 38.838 118.216 40.6981 117.713 41.2414L108.42 44.7388C107.684 44.6618 106.984 42.8017 107.487 42.2587Z" stroke="#633DCC" stroke-width="2"/>
<path d="M92.345 46.1878C91.9185 45.9943 92.1477 43.7847 92.7673 43.5515C96.7699 43.873 98.9106 43.9431 102.181 43.1936C103.653 43.3475 104.043 45.3242 103.231 45.9839C98.5923 47.1066 96.5462 47.2796 92.345 46.1878Z" stroke="#633DCC" stroke-width="2"/>
<path d="M77.4685 46.1241C76.9254 45.6204 77.4643 43.294 78.0839 43.061L87.4209 43.4401C88.2737 43.8268 87.8514 46.4632 87.232 46.6966L77.4685 46.1241Z" stroke="#633DCC" stroke-width="2"/>
<path d="M63.2519 46.8736C62.2058 46.9132 62.0086 44.5099 62.9378 44.1602L72.6611 43.6862C73.2041 44.1895 73.2847 46.2828 72.6653 46.5161L63.2519 46.8736Z" stroke="#633DCC" stroke-width="2"/>
<path d="M48.9227 50.1431C48.3031 50.3761 47.3697 47.8961 47.9893 47.663L57.7485 45.4056C58.368 45.1723 58.9917 47.7692 58.3722 48.0023L48.9227 50.1431Z" stroke="#633DCC" stroke-width="2"/>
<path d="M34.5171 54.1492L43.343 49.4117C43.9625 49.1785 44.9722 50.9219 44.4695 51.4652L35.6436 56.2027C35.0241 56.4357 34.0142 54.6922 34.5171 54.1492Z" stroke="#633DCC" stroke-width="2"/>
<path d="M22.5979 62.8823L30.1042 56.5179C30.7237 56.2848 31.8501 58.3381 31.3474 58.8815L24.6537 64.5861C24.1508 65.1291 22.4048 63.3088 22.5979 62.8823Z" stroke="#633DCC" stroke-width="2"/>
<path d="M14.0541 74.9462L18.4587 66.9177C18.8447 66.0644 21.52 67.535 21.327 67.9618L16.9224 75.9903C16.1098 76.6499 14.0943 75.9927 14.0541 74.9462Z" stroke="#633DCC" stroke-width="2"/>
<path d="M10.7358 83.9816L12.2401 79.5222L14.682 80.3728L13.3708 84.4056L22.2453 86.3745L8.669 101.04L2.17101 81.8961L10.7358 83.9816Z" stroke="#633DCC" stroke-width="2"/>
</svg>
