<svg width="202" height="142" viewBox="0 0 202 142" fill="none" xmlns="http://www.w3.org/2000/svg">
<path d="M7.63807 9.37249C5.80493 3.87308 0 0.20681 0 0.20681V-14H28.4136C28.4136 -14 29.4829 22.3572 28.2609 22.51C27.0388 22.6627 25.0529 22.6627 23.2197 23.2738C21.3866 23.8848 17.3743 26.6345 17.8731 32.745C18.3719 38.8554 19.2479 46.9518 17.8731 51.5346C16.4982 56.1175 12.832 55.6337 12.0681 55.5064C11.3043 55.3791 8.7074 54.8954 8.09635 51.5346C7.48531 48.1739 8.7074 36.2585 8.7074 36.2585C8.7074 36.2585 9.47121 30.7591 9.47121 23.4265C9.47121 16.094 9.47121 14.8719 7.63807 9.37249Z" fill="#633DCC" stroke="#633DCC"/>
<path d="M41.94 25.8707C39.4958 23.5793 38.121 23.5793 36.2878 22.9682C34.4547 22.3572 28.497 22.5099 28.497 22.5099L29.4136 -13.8473H199.743V6.46997L199.131 16.0939C199.131 16.0939 198.728 31.3714 199.131 41.1468C199.504 50.1757 201.27 57.4923 200.965 64.2138C200.659 70.9353 197.451 73.3795 194.396 73.3795C191.341 73.3795 188.285 69.1021 187.674 64.2138C187.063 59.3254 188.285 49.2432 188.591 41.1468C188.896 33.0505 187.216 21.5933 187.216 21.5933C187.216 21.5933 185.688 15.3301 179.884 15.1774C174.079 15.0246 171.634 21.5933 171.634 21.5933C171.634 21.5933 165.724 33.2996 162.774 41.1468C157.163 56.0727 153.609 74.9071 153.303 80.8648C152.998 86.8225 153.303 95.5299 153.303 95.5299C153.303 95.5299 153.63 100.747 153.914 104.084C154.668 112.947 156.274 117.833 156.664 126.693L156.511 129.29L156.358 131.429C156.358 131.429 155.868 135.553 155.289 136.928C154.71 138.303 152.898 141.092 150.401 141.053C147.948 141.014 146.123 139.831 145.665 136.928C145.207 134.026 145.665 129.29 145.665 129.29C145.665 129.29 146.582 106.987 147.345 98.5851C148.109 90.1832 149.179 82.5451 147.804 69.1021C146.429 55.6591 142.915 47.1045 142.61 46.3407C142.304 45.5769 139.707 40.8413 134.972 40.8413C130.236 40.8413 128.708 44.0493 128.25 45.5769C127.792 47.1045 128.403 60.5475 127.945 61.6168C127.486 62.6862 126.488 63.8591 124.737 63.7555C122.925 63.6483 122.14 61.7696 121.834 60.853C121.529 59.9365 121.223 52.4511 121.223 47.5628C121.223 42.6744 120.612 30.3008 107.933 30.9118C95.2537 31.5228 95.2537 47.5628 95.2537 47.5628V56.7285C95.2537 66.1997 96.4808 71.7997 96.9341 81.4758C97.7131 98.1029 97.3924 124.096 97.3924 124.096C97.3924 124.096 96.7328 134.379 92.1985 134.484C87.6096 134.591 86.6991 124.096 86.6991 124.096V116.916L88.3795 94.4605C88.3795 94.4605 89.4488 77.0457 90.8237 64.8248C92.1985 52.6039 88.5322 37.0223 87.7684 34.2725C87.0046 31.5228 82.416 21.1729 73.7144 21.7461C65.0127 22.3194 65.7708 29.8425 65.7708 29.8425C65.7708 29.8425 65.4653 37.0223 65.3125 37.9388C65.1597 38.8554 63.874 41.2353 62.1045 41.1468C60.4172 41.0624 59.3548 39.772 59.202 37.9388C59.0493 36.1057 60.7297 33.0505 60.2714 29.8425C59.8131 26.6345 56.2996 26.6345 56.2996 26.6345C56.2996 26.6345 53.0916 27.2455 52.6333 30.9118C52.175 34.5781 52.6333 38.0808 52.6333 42.6744C52.6333 54.0093 52.7963 60.3654 52.6333 71.6991C52.4797 82.3808 51.958 97.8213 51.8695 99.0434C51.781 100.265 51.564 104.696 47.7449 104.084C43.9259 103.473 43.0093 98.7379 42.8566 95.8354C42.7038 92.9329 42.7038 92.3219 43.6204 81.1703C44.537 70.0187 46.3701 48.9376 46.0646 41.9106C45.759 34.8836 44.3842 28.1621 41.94 25.8707Z" fill="#633DCC" stroke="#633DCC"/>
</svg>
