<svg width="157" height="231" viewBox="0 0 157 231" fill="none" xmlns="http://www.w3.org/2000/svg">
<path d="M146.292 218.73L155.221 226.23C155.654 226.899 154.148 229.296 152.997 229.092L144.068 221.591C143.635 220.923 145.501 218.293 146.292 218.73Z" fill="#633DCC"/>
<path d="M138.595 217.07C139.244 218.073 141.901 215.88 141.828 214.979L134.262 205.648C133.471 205.211 131.173 207.172 131.246 208.073L138.595 217.07Z" fill="#633DCC"/>
<path d="M127.21 202.623C128.002 203.059 130.157 201.665 130.083 200.764L123.812 191.07C123.379 190.401 120.506 192.26 120.938 192.929L127.21 202.623Z" fill="#633DCC"/>
<path d="M117.744 174.604L121.286 185.591C121.359 186.492 118.413 187.45 117.98 186.781L114.581 175.228C114.508 174.327 117.671 173.703 117.744 174.604Z" fill="#633DCC"/>
<path d="M111.673 155.77C112.175 154.971 115.771 155.016 115.485 156.15L116.296 168.428C115.435 169.46 112.99 169.619 112.341 168.616L111.673 155.77Z" fill="#633DCC"/>
<path d="M115.597 136.635C115.334 137.438 115.094 138.185 114.872 138.898C112.342 137.522 110.379 135.264 107.39 131.038C106.93 130.387 104.444 131.996 104.517 132.897C107.859 137.689 110.138 140.207 113.773 142.732C113.24 144.799 112.803 146.897 112.31 149.668C112.384 150.569 115.261 151.078 115.763 150.279C116.532 145.269 117.227 142.537 118.907 137.813C119.05 137.246 115.74 136.068 115.597 136.635Z" fill="#633DCC"/>
<path d="M123.263 119.346C123.808 118.614 126.932 120.291 126.43 121.09C122.907 126.231 121.911 128.282 120.336 132.146C119.834 132.945 116.795 131.564 117.169 130.402C118.794 125.344 120.466 123.1 123.095 119.57L123.263 119.346Z" fill="#633DCC"/>
<path d="M131.381 114.568C136.895 112.953 139.57 112.354 145.187 114.645C145.762 115.87 145.048 117.58 143.754 117.943C138.718 116.459 137.066 117.055 132.033 117.939C131.458 117.837 130.303 115.265 131.381 114.568Z" fill="#633DCC"/>
<path d="M148.292 122.595C147.929 120.458 150.624 119.818 151.598 121.404C152.572 122.991 153.412 128.61 152.985 133.785C152.34 135.151 149.32 135.208 148.957 133.071C149.941 128.709 149.447 125.167 148.292 122.595Z" fill="#633DCC"/>
<path d="M148.393 140.075C150.479 140.148 151.56 141.82 150.772 143.752C146.74 147.171 144.978 148.203 140.356 150.491C139.062 150.854 137.332 148.18 138.553 146.916C144.175 144.739 145.593 142.835 148.393 140.075Z" fill="#633DCC"/>
<path d="M120.139 143.655C124.425 145.923 127.094 146.8 132.369 147.597C133.161 148.033 132.088 151.098 131.153 151.229C125.604 150.745 123.005 149.35 118.706 146.953C117.909 146.508 119.204 143.785 120.139 143.655Z" fill="#633DCC"/>
<path d="M97.8741 116.329L104.362 126.358C104.436 127.259 102.281 128.653 101.489 128.217L95.0008 118.188C94.9276 117.287 97.0826 115.893 97.8741 116.329Z" fill="#633DCC"/>
<path d="M89.5053 99.4561C89.6482 98.8894 92.4518 98.4982 92.8843 99.1668C93.4033 104.036 93.8076 106.61 95.4916 110.283C95.6382 112.085 93.2669 113.145 92.259 112.375C89.7961 107.182 89.1108 104.794 89.5053 99.4561Z" fill="#633DCC"/>
<path d="M86.1682 81.6985C86.6705 80.8993 89.6905 80.8423 90.1229 81.511L91.7952 92.7583C91.5096 93.8915 88.1304 94.181 87.6977 93.5125L86.1682 81.6985Z" fill="#633DCC"/>
<path d="M81.9702 64.9722C81.6807 63.7368 84.6273 62.7788 85.2762 63.7816L88.0992 75.233C87.5973 76.0319 85.0098 76.7575 84.5771 76.0891L81.9702 64.9722Z" fill="#633DCC"/>
<path d="M74.6091 48.8696C74.1768 48.2009 77.0499 46.3421 77.4824 47.0106L82.5339 57.9685C82.9667 58.6369 79.8769 60.1617 79.4444 59.4932L74.6091 48.8696Z" fill="#633DCC"/>
<path d="M66.3135 32.8974L74.2383 41.9964C74.6709 42.665 72.7324 44.3933 71.9405 43.9573L64.0156 34.8583C63.5833 34.1896 65.522 32.4611 66.3135 32.8974Z" fill="#633DCC"/>
<path d="M52.7038 21.3118L62.3511 28.348C62.7836 29.0165 60.486 30.9773 59.6941 30.5412L51.0548 24.2755C50.2633 23.8392 52.1286 21.2098 52.7038 21.3118Z" fill="#633DCC"/>
<path d="M35.7227 14.7526L46.7293 17.5899C47.8804 17.7936 46.6639 21.4258 46.0883 21.324L35.0816 18.4868C34.0739 17.7162 34.4291 15.1153 35.7227 14.7526Z" fill="#633DCC"/>
<path d="M23.712 13.5134L29.6092 13.9659L29.111 17.1334L23.7893 16.7829L23.3761 27.9569L1.99998 16.1797L24.3414 2.67366L23.712 13.5134Z" fill="#633DCC"/>
<path d="M146.292 218.73L155.221 226.23C155.654 226.899 154.148 229.296 152.997 229.092L144.068 221.591C143.635 220.923 145.501 218.293 146.292 218.73Z" stroke="#633DCC" stroke-width="2"/>
<path d="M138.595 217.07C139.244 218.073 141.901 215.88 141.828 214.979L134.262 205.648C133.471 205.211 131.173 207.172 131.246 208.073L138.595 217.07Z" stroke="#633DCC" stroke-width="2"/>
<path d="M127.21 202.623C128.002 203.059 130.157 201.665 130.083 200.764L123.812 191.07C123.379 190.401 120.506 192.26 120.938 192.929L127.21 202.623Z" stroke="#633DCC" stroke-width="2"/>
<path d="M117.744 174.604L121.286 185.591C121.359 186.492 118.413 187.45 117.98 186.781L114.581 175.228C114.508 174.327 117.671 173.703 117.744 174.604Z" stroke="#633DCC" stroke-width="2"/>
<path d="M111.673 155.77C112.175 154.971 115.771 155.016 115.485 156.15L116.296 168.428C115.435 169.46 112.99 169.619 112.341 168.616L111.673 155.77Z" stroke="#633DCC" stroke-width="2"/>
<path d="M115.597 136.635C115.334 137.438 115.094 138.185 114.872 138.898C112.342 137.522 110.379 135.264 107.39 131.038C106.93 130.387 104.444 131.996 104.517 132.897C107.859 137.689 110.138 140.207 113.773 142.732C113.24 144.799 112.803 146.897 112.31 149.668C112.384 150.569 115.261 151.078 115.763 150.279C116.532 145.269 117.227 142.537 118.907 137.813C119.05 137.246 115.74 136.068 115.597 136.635Z" stroke="#633DCC" stroke-width="2"/>
<path d="M123.263 119.346C123.808 118.614 126.932 120.291 126.43 121.09C122.907 126.231 121.911 128.282 120.336 132.146C119.834 132.945 116.795 131.564 117.169 130.402C118.794 125.344 120.466 123.1 123.095 119.57L123.263 119.346Z" stroke="#633DCC" stroke-width="2"/>
<path d="M131.381 114.568C136.895 112.953 139.57 112.354 145.187 114.645C145.762 115.87 145.048 117.58 143.754 117.943C138.718 116.459 137.066 117.055 132.033 117.939C131.458 117.837 130.303 115.265 131.381 114.568Z" stroke="#633DCC" stroke-width="2"/>
<path d="M148.292 122.595C147.929 120.458 150.624 119.818 151.598 121.404C152.572 122.991 153.412 128.61 152.985 133.785C152.34 135.151 149.32 135.208 148.957 133.071C149.941 128.709 149.447 125.167 148.292 122.595Z" stroke="#633DCC" stroke-width="2"/>
<path d="M148.393 140.075C150.479 140.148 151.56 141.82 150.772 143.752C146.74 147.171 144.978 148.203 140.356 150.491C139.062 150.854 137.332 148.18 138.553 146.916C144.175 144.739 145.593 142.835 148.393 140.075Z" stroke="#633DCC" stroke-width="2"/>
<path d="M120.139 143.655C124.425 145.923 127.094 146.8 132.369 147.597C133.161 148.033 132.088 151.098 131.153 151.229C125.604 150.745 123.005 149.35 118.706 146.953C117.909 146.508 119.204 143.785 120.139 143.655Z" stroke="#633DCC" stroke-width="2"/>
<path d="M97.8741 116.329L104.362 126.358C104.436 127.259 102.281 128.653 101.489 128.217L95.0008 118.188C94.9276 117.287 97.0826 115.893 97.8741 116.329Z" stroke="#633DCC" stroke-width="2"/>
<path d="M89.5053 99.4561C89.6482 98.8894 92.4518 98.4982 92.8843 99.1668C93.4033 104.036 93.8076 106.61 95.4916 110.283C95.6382 112.085 93.2669 113.145 92.259 112.375C89.7961 107.182 89.1108 104.794 89.5053 99.4561Z" stroke="#633DCC" stroke-width="2"/>
<path d="M86.1682 81.6985C86.6705 80.8993 89.6905 80.8423 90.1229 81.511L91.7952 92.7583C91.5096 93.8915 88.1304 94.181 87.6977 93.5125L86.1682 81.6985Z" stroke="#633DCC" stroke-width="2"/>
<path d="M81.9702 64.9722C81.6807 63.7368 84.6273 62.7788 85.2762 63.7816L88.0992 75.233C87.5973 76.0319 85.0098 76.7575 84.5771 76.0891L81.9702 64.9722Z" stroke="#633DCC" stroke-width="2"/>
<path d="M74.6091 48.8696C74.1768 48.2009 77.0499 46.3421 77.4824 47.0106L82.5339 57.9685C82.9667 58.6369 79.8769 60.1617 79.4444 59.4932L74.6091 48.8696Z" stroke="#633DCC" stroke-width="2"/>
<path d="M66.3135 32.8974L74.2383 41.9964C74.6709 42.665 72.7324 44.3933 71.9405 43.9573L64.0156 34.8583C63.5833 34.1896 65.522 32.4611 66.3135 32.8974Z" stroke="#633DCC" stroke-width="2"/>
<path d="M52.7038 21.3118L62.3511 28.348C62.7836 29.0165 60.486 30.9773 59.6941 30.5412L51.0548 24.2755C50.2633 23.8392 52.1286 21.2098 52.7038 21.3118Z" stroke="#633DCC" stroke-width="2"/>
<path d="M35.7227 14.7526L46.7293 17.5899C47.8804 17.7936 46.6639 21.4258 46.0883 21.324L35.0816 18.4868C34.0739 17.7162 34.4291 15.1153 35.7227 14.7526Z" stroke="#633DCC" stroke-width="2"/>
<path d="M23.712 13.5134L29.6092 13.9659L29.111 17.1334L23.7893 16.7829L23.3761 27.9569L1.99998 16.1797L24.3414 2.67366L23.712 13.5134Z" stroke="#633DCC" stroke-width="2"/>
</svg>
