<svg width="289" height="73" viewBox="0 0 289 73" fill="none" xmlns="http://www.w3.org/2000/svg">
<path d="M73 36.4478C73 56.0109 56.8965 71.8955 37 71.8955C17.1035 71.8955 1 56.0109 1 36.4478C1 16.8846 17.1035 1 37 1C56.8965 1 73 16.8846 73 36.4478Z" stroke="#9800E3" stroke-width="2"/>
<path d="M17.758 35.77H21.034C22.2473 35.77 23.3133 35.6053 24.232 35.276C25.1507 34.9293 25.87 34.4267 26.39 33.768C26.91 33.1093 27.17 32.3207 27.17 31.402C27.17 30.362 26.91 29.504 26.39 28.828C25.87 28.152 25.1507 27.6493 24.232 27.32C23.3133 26.9733 22.2473 26.8 21.034 26.8H14.976V45H21.424C22.776 45 23.9633 44.818 24.986 44.454C26.0087 44.09 26.7973 43.5267 27.352 42.764C27.924 42.0013 28.21 41.022 28.21 39.826C28.21 38.9247 28.0193 38.1533 27.638 37.512C27.274 36.8707 26.7713 36.3507 26.13 35.952C25.4887 35.536 24.7607 35.2327 23.946 35.042C23.1487 34.8513 22.308 34.756 21.424 34.756H17.758V36.784H21.086C21.554 36.784 21.9873 36.836 22.386 36.94C22.7847 37.0267 23.1313 37.1827 23.426 37.408C23.738 37.616 23.972 37.8847 24.128 38.214C24.3013 38.526 24.388 38.9073 24.388 39.358C24.388 39.982 24.2407 40.4933 23.946 40.892C23.6687 41.2907 23.2787 41.5853 22.776 41.776C22.2733 41.9493 21.71 42.036 21.086 42.036H18.694V29.764H20.696C21.5107 29.764 22.152 29.946 22.62 30.31C23.1053 30.674 23.348 31.2027 23.348 31.896C23.348 32.3467 23.2353 32.7367 23.01 33.066C22.802 33.3953 22.4987 33.6467 22.1 33.82C21.7013 33.9933 21.2333 34.08 20.696 34.08H17.758V35.77ZM33.7703 45H42.9483V41.854H33.7703V45ZM33.7703 29.946H42.9483V26.8H33.7703V29.946ZM33.7703 36.888H42.4283V33.794H33.7703V36.888ZM31.3783 26.8V45H34.9663V26.8H31.3783ZM47.9387 36.888H53.2167C53.8407 36.888 54.3867 36.9833 54.8547 37.174C55.3227 37.3473 55.6781 37.616 55.9207 37.98C56.1807 38.344 56.3107 38.812 56.3107 39.384C56.3107 39.9387 56.1807 40.398 55.9207 40.762C55.6781 41.126 55.3227 41.4033 54.8547 41.594C54.3867 41.7673 53.8407 41.854 53.2167 41.854H47.9387V45H53.8927C55.0714 45 56.1201 44.766 57.0387 44.298C57.9747 43.83 58.7114 43.1713 59.2487 42.322C59.8034 41.4727 60.0807 40.4933 60.0807 39.384C60.0807 38.2573 59.8034 37.278 59.2487 36.446C58.7114 35.5967 57.9747 34.9467 57.0387 34.496C56.1201 34.028 55.0714 33.794 53.8927 33.794H47.9387V36.888ZM46.7167 26.8V45H50.4867V29.946H58.7027V26.8H46.7167Z" fill="#9800E3"/>
<path d="M81.584 36.6C81.584 35.48 81.832 34.512 82.328 33.696C82.84 32.88 83.504 32.256 84.32 31.824C85.136 31.376 86.024 31.152 86.984 31.152C87.784 31.152 88.496 31.256 89.12 31.464C89.744 31.672 90.304 31.952 90.8 32.304C91.312 32.656 91.752 33.04 92.12 33.456V29.592C91.432 29.048 90.68 28.624 89.864 28.32C89.064 28.016 88.048 27.864 86.816 27.864C85.536 27.864 84.344 28.072 83.24 28.488C82.152 28.904 81.2 29.504 80.384 30.288C79.584 31.072 78.96 32 78.512 33.072C78.08 34.128 77.864 35.304 77.864 36.6C77.864 37.896 78.08 39.08 78.512 40.152C78.96 41.208 79.584 42.128 80.384 42.912C81.2 43.696 82.152 44.296 83.24 44.712C84.344 45.128 85.536 45.336 86.816 45.336C88.048 45.336 89.064 45.184 89.864 44.88C90.68 44.576 91.432 44.152 92.12 43.608V39.744C91.752 40.16 91.312 40.544 90.8 40.896C90.304 41.248 89.744 41.528 89.12 41.736C88.496 41.944 87.784 42.048 86.984 42.048C86.024 42.048 85.136 41.832 84.32 41.4C83.504 40.952 82.84 40.32 82.328 39.504C81.832 38.672 81.584 37.704 81.584 36.6ZM93.1284 31.296H97.6404V45H101.072V31.296H105.608V28.2H93.1284V31.296ZM121.053 28.2H117.429L112.773 38.544L114.381 38.616L110.205 28.2H106.317L111.813 39.936L109.581 45H113.157L121.053 28.2ZM128.684 33.84L132.548 44.28H136.46L128.684 27.36L120.908 44.28H124.82L128.684 33.84ZM134.588 45V47.64H137.924V42H119.444V47.64H122.78V45H134.588ZM155.984 31.824L156.104 27.36L140.96 41.376L140.84 45.84L155.984 31.824ZM144.152 28.2H140.84V45.84L144.152 42.264V28.2ZM156.104 27.36L152.792 31.032V45H156.104V27.36ZM167.17 37.176H163.546L158.074 45H162.13L167.17 37.176ZM170.986 28.2H167.554V45H170.986V28.2ZM168.898 31.128V28.2H165.346C164.034 28.2 162.906 28.424 161.962 28.872C161.034 29.32 160.322 29.944 159.826 30.744C159.33 31.544 159.082 32.48 159.082 33.552C159.082 34.608 159.33 35.544 159.826 36.36C160.322 37.16 161.034 37.784 161.962 38.232C162.906 38.68 164.034 38.904 165.346 38.904H168.898V36.168H165.562C164.97 36.168 164.45 36.072 164.002 35.88C163.554 35.672 163.21 35.384 162.97 35.016C162.73 34.632 162.61 34.176 162.61 33.648C162.61 33.12 162.73 32.672 162.97 32.304C163.21 31.92 163.554 31.632 164.002 31.44C164.45 31.232 164.97 31.128 165.562 31.128H168.898Z" fill="#00204C"/>
<path d="M195.032 45H203.504V42.096H195.032V45ZM195.032 31.104H203.504V28.2H195.032V31.104ZM195.032 37.512H203.024V34.656H195.032V37.512ZM192.824 28.2V45H196.136V28.2H192.824ZM220.783 28.2H207.751V38.328C207.751 38.888 207.695 39.4 207.583 39.864C207.471 40.328 207.311 40.728 207.103 41.064C206.895 41.4 206.639 41.656 206.335 41.832C206.031 42.008 205.687 42.096 205.303 42.096V45C206.663 45 207.775 44.736 208.639 44.208C209.503 43.68 210.135 42.92 210.535 41.928C210.951 40.92 211.159 39.712 211.159 38.304V31.296H217.303V45H220.783V28.2ZM224.535 28.2V45H227.967V28.2H224.535ZM226.623 37.2H229.959C230.567 37.2 231.087 37.296 231.519 37.488C231.967 37.664 232.311 37.936 232.551 38.304C232.791 38.672 232.911 39.12 232.911 39.648C232.911 40.176 232.791 40.624 232.551 40.992C232.311 41.36 231.967 41.64 231.519 41.832C231.087 42.008 230.567 42.096 229.959 42.096H226.623V45H229.959C231.287 45 232.415 44.784 233.343 44.352C234.287 43.92 235.007 43.304 235.503 42.504C235.999 41.688 236.247 40.736 236.247 39.648C236.247 38.544 235.999 37.592 235.503 36.792C235.007 35.992 234.287 35.376 233.343 34.944C232.415 34.512 231.287 34.296 229.959 34.296H226.623V37.2ZM244.35 39.264H249.558V36.216H245.166L244.35 39.264ZM248.094 28.2V45H251.622V28.2H248.094ZM242.31 28.2H238.902V33.384C238.902 34.456 239.11 35.44 239.526 36.336C239.942 37.232 240.558 37.944 241.374 38.472C242.19 39 243.182 39.264 244.35 39.264L245.166 36.216C244.59 36.216 244.086 36.088 243.654 35.832C243.222 35.576 242.886 35.208 242.646 34.728C242.422 34.248 242.31 33.68 242.31 33.024V28.2ZM270.499 31.824L270.619 27.36L255.475 41.376L255.355 45.84L270.499 31.824ZM258.667 28.2H255.355V45.84L258.667 42.264V28.2ZM270.619 27.36L267.307 31.032V45H270.619V27.36ZM274.269 28.2V45H277.797V28.2H274.269ZM283.773 28.2L276.789 36.168L284.037 45H288.213L280.893 36.072L287.853 28.2H283.773Z" fill="url(#paint0_linear_227_67)"/>
<path d="M175.81 35.64H181.9C182.62 35.64 183.25 35.75 183.79 35.97C184.33 36.17 184.74 36.48 185.02 36.9C185.32 37.32 185.47 37.86 185.47 38.52C185.47 39.16 185.32 39.69 185.02 40.11C184.74 40.53 184.33 40.85 183.79 41.07C183.25 41.27 182.62 41.37 181.9 41.37H175.81V45H182.68C184.04 45 185.25 44.73 186.31 44.19C187.39 43.65 188.24 42.89 188.86 41.91C189.5 40.93 189.82 39.8 189.82 38.52C189.82 37.22 189.5 36.09 188.86 35.13C188.24 34.15 187.39 33.4 186.31 32.88C185.25 32.34 184.04 32.07 182.68 32.07H175.81V35.64ZM174.4 24V45H178.75V27.63H188.23V24H174.4Z" fill="#9800E3"/>
<defs>
<linearGradient id="paint0_linear_227_67" x1="187" y1="19" x2="289" y2="62" gradientUnits="userSpaceOnUse">
<stop stop-color="#9800E3"/>
<stop offset="1" stop-color="#3605FD"/>
</linearGradient>
</defs>
</svg>
