<svg width="122" height="28" viewBox="0 0 122 28" fill="none" xmlns="http://www.w3.org/2000/svg">
<path d="M27.4242 14C27.4242 21.1656 21.5232 27 14.2121 27C6.90104 27 1 21.1656 1 14C1 6.83442 6.90104 1 14.2121 1C21.5232 1 27.4242 6.83442 27.4242 14Z" stroke="#9800E3" stroke-width="2"/>
<path d="M6.83 13.45H8.09C8.55667 13.45 8.96667 13.3867 9.32 13.26C9.67333 13.1267 9.95 12.9333 10.15 12.68C10.35 12.4267 10.45 12.1233 10.45 11.77C10.45 11.37 10.35 11.04 10.15 10.78C9.95 10.52 9.67333 10.3267 9.32 10.2C8.96667 10.0667 8.55667 10 8.09 10H5.76V17H8.24C8.76 17 9.21667 16.93 9.61 16.79C10.0033 16.65 10.3067 16.4333 10.52 16.14C10.74 15.8467 10.85 15.47 10.85 15.01C10.85 14.6633 10.7767 14.3667 10.63 14.12C10.49 13.8733 10.2967 13.6733 10.05 13.52C9.80333 13.36 9.52333 13.2433 9.21 13.17C8.90333 13.0967 8.58 13.06 8.24 13.06H6.83V13.84H8.11C8.29 13.84 8.45667 13.86 8.61 13.9C8.76333 13.9333 8.89667 13.9933 9.01 14.08C9.13 14.16 9.22 14.2633 9.28 14.39C9.34667 14.51 9.38 14.6567 9.38 14.83C9.38 15.07 9.32333 15.2667 9.21 15.42C9.10333 15.5733 8.95333 15.6867 8.76 15.76C8.56667 15.8267 8.35 15.86 8.11 15.86H7.19V11.14H7.96C8.27333 11.14 8.52 11.21 8.7 11.35C8.88667 11.49 8.98 11.6933 8.98 11.96C8.98 12.1333 8.93667 12.2833 8.85 12.41C8.77 12.5367 8.65333 12.6333 8.5 12.7C8.34667 12.7667 8.16667 12.8 7.96 12.8H6.83V13.45ZM12.9886 17H16.5186V15.79H12.9886V17ZM12.9886 11.21H16.5186V10H12.9886V11.21ZM12.9886 13.88H16.3186V12.69H12.9886V13.88ZM12.0686 10V17H13.4486V10H12.0686ZM18.438 13.88H20.468C20.708 13.88 20.918 13.9167 21.098 13.99C21.278 14.0567 21.4146 14.16 21.508 14.3C21.608 14.44 21.658 14.62 21.658 14.84C21.658 15.0533 21.608 15.23 21.508 15.37C21.4146 15.51 21.278 15.6167 21.098 15.69C20.918 15.7567 20.708 15.79 20.468 15.79H18.438V17H20.728C21.1813 17 21.5846 16.91 21.938 16.73C22.298 16.55 22.5813 16.2967 22.788 15.97C23.0013 15.6433 23.108 15.2667 23.108 14.84C23.108 14.4067 23.0013 14.03 22.788 13.71C22.5813 13.3833 22.298 13.1333 21.938 12.96C21.5846 12.78 21.1813 12.69 20.728 12.69H18.438V13.88ZM17.968 10V17H19.418V11.21H22.578V10H17.968Z" fill="#9800E3"/>
<path d="M31.91 13.5C31.91 13.0333 32.0133 12.63 32.22 12.29C32.4333 11.95 32.71 11.69 33.05 11.51C33.39 11.3233 33.76 11.23 34.16 11.23C34.4933 11.23 34.79 11.2733 35.05 11.36C35.31 11.4467 35.5433 11.5633 35.75 11.71C35.9633 11.8567 36.1467 12.0167 36.3 12.19V10.58C36.0133 10.3533 35.7 10.1767 35.36 10.05C35.0267 9.92333 34.6033 9.86 34.09 9.86C33.5567 9.86 33.06 9.94667 32.6 10.12C32.1467 10.2933 31.75 10.5433 31.41 10.87C31.0767 11.1967 30.8167 11.5833 30.63 12.03C30.45 12.47 30.36 12.96 30.36 13.5C30.36 14.04 30.45 14.5333 30.63 14.98C30.8167 15.42 31.0767 15.8033 31.41 16.13C31.75 16.4567 32.1467 16.7067 32.6 16.88C33.06 17.0533 33.5567 17.14 34.09 17.14C34.6033 17.14 35.0267 17.0767 35.36 16.95C35.7 16.8233 36.0133 16.6467 36.3 16.42V14.81C36.1467 14.9833 35.9633 15.1433 35.75 15.29C35.5433 15.4367 35.31 15.5533 35.05 15.64C34.79 15.7267 34.4933 15.77 34.16 15.77C33.76 15.77 33.39 15.68 33.05 15.5C32.71 15.3133 32.4333 15.05 32.22 14.71C32.0133 14.3633 31.91 13.96 31.91 13.5ZM36.7202 11.29H38.6002V17H40.0302V11.29H41.9202V10H36.7202V11.29ZM48.3554 10H46.8454L44.9054 14.31L45.5754 14.34L43.8354 10H42.2154L44.5054 14.89L43.5754 17H45.0654L48.3554 10ZM51.5352 12.35L53.1452 16.7H54.7752L51.5352 9.65L48.2952 16.7H49.9252L51.5352 12.35ZM53.9952 17V18.1H55.3852V15.75H47.6852V18.1H49.0752V17H53.9952ZM62.9098 11.51L62.9598 9.65L56.6498 15.49L56.5998 17.35L62.9098 11.51ZM57.9798 10H56.5998V17.35L57.9798 15.86V10ZM62.9598 9.65L61.5798 11.18V17H62.9598V9.65ZM67.5707 13.74H66.0607L63.7807 17H65.4707L67.5707 13.74ZM69.1607 10H67.7307V17H69.1607V10ZM68.2907 11.22V10H66.8107C66.264 10 65.794 10.0933 65.4007 10.28C65.014 10.4667 64.7174 10.7267 64.5107 11.06C64.304 11.3933 64.2007 11.7833 64.2007 12.23C64.2007 12.67 64.304 13.06 64.5107 13.4C64.7174 13.7333 65.014 13.9933 65.4007 14.18C65.794 14.3667 66.264 14.46 66.8107 14.46H68.2907V13.32H66.9007C66.654 13.32 66.4374 13.28 66.2507 13.2C66.064 13.1133 65.9207 12.9933 65.8207 12.84C65.7207 12.68 65.6707 12.49 65.6707 12.27C65.6707 12.05 65.7207 11.8633 65.8207 11.71C65.9207 11.55 66.064 11.43 66.2507 11.35C66.4374 11.2633 66.654 11.22 66.9007 11.22H68.2907Z" fill="#00204C"/>
<path d="M77.68 17H81.21V15.79H77.68V17ZM77.68 11.21H81.21V10H77.68V11.21ZM77.68 13.88H81.01V12.69H77.68V13.88ZM76.76 10V17H78.14V10H76.76ZM88.4094 10H82.9794V14.22C82.9794 14.4533 82.956 14.6667 82.9094 14.86C82.8627 15.0533 82.796 15.22 82.7094 15.36C82.6227 15.5 82.516 15.6067 82.3894 15.68C82.2627 15.7533 82.1194 15.79 81.9594 15.79V17C82.526 17 82.9894 16.89 83.3494 16.67C83.7094 16.45 83.9727 16.1333 84.1394 15.72C84.3127 15.3 84.3994 14.7967 84.3994 14.21V11.29H86.9594V17H88.4094V10ZM89.9729 10V17H91.4029V10H89.9729ZM90.8429 13.75H92.2329C92.4862 13.75 92.7029 13.79 92.8829 13.87C93.0696 13.9433 93.2129 14.0567 93.3129 14.21C93.4129 14.3633 93.4629 14.55 93.4629 14.77C93.4629 14.99 93.4129 15.1767 93.3129 15.33C93.2129 15.4833 93.0696 15.6 92.8829 15.68C92.7029 15.7533 92.4862 15.79 92.2329 15.79H90.8429V17H92.2329C92.7862 17 93.2562 16.91 93.6429 16.73C94.0362 16.55 94.3362 16.2933 94.5429 15.96C94.7496 15.62 94.8529 15.2233 94.8529 14.77C94.8529 14.31 94.7496 13.9133 94.5429 13.58C94.3362 13.2467 94.0362 12.99 93.6429 12.81C93.2562 12.63 92.7862 12.54 92.2329 12.54H90.8429V13.75ZM98.2292 14.61H100.399V13.34H98.5692L98.2292 14.61ZM99.7892 10V17H101.259V10H99.7892ZM97.3792 10H95.9592V12.16C95.9592 12.6067 96.0459 13.0167 96.2192 13.39C96.3926 13.7633 96.6492 14.06 96.9892 14.28C97.3292 14.5 97.7426 14.61 98.2292 14.61L98.5692 13.34C98.3292 13.34 98.1192 13.2867 97.9392 13.18C97.7592 13.0733 97.6192 12.92 97.5192 12.72C97.4259 12.52 97.3792 12.2833 97.3792 12.01V10ZM109.125 11.51L109.175 9.65L102.865 15.49L102.815 17.35L109.125 11.51ZM104.195 10H102.815V17.35L104.195 15.86V10ZM109.175 9.65L107.795 11.18V17H109.175V9.65ZM110.696 10V17H112.166V10H110.696ZM114.656 10L111.746 13.32L114.766 17H116.506L113.456 13.28L116.356 10H114.656Z" fill="url(#paint0_linear_227_81)"/>
<path d="M70.524 13.256H72.96C73.248 13.256 73.5 13.3 73.716 13.388C73.932 13.468 74.096 13.592 74.208 13.76C74.328 13.928 74.388 14.144 74.388 14.408C74.388 14.664 74.328 14.876 74.208 15.044C74.096 15.212 73.932 15.34 73.716 15.428C73.5 15.508 73.248 15.548 72.96 15.548H70.524V17H73.272C73.816 17 74.3 16.892 74.724 16.676C75.156 16.46 75.496 16.156 75.744 15.764C76 15.372 76.128 14.92 76.128 14.408C76.128 13.888 76 13.436 75.744 13.052C75.496 12.66 75.156 12.36 74.724 12.152C74.3 11.936 73.816 11.828 73.272 11.828H70.524V13.256ZM69.96 8.6V17H71.7V10.052H75.492V8.6H69.96Z" fill="#9800E3"/>
<defs>
<linearGradient id="paint0_linear_227_81" x1="74.1224" y1="7" x2="119.423" y2="29.4099" gradientUnits="userSpaceOnUse">
<stop stop-color="#9800E3"/>
<stop offset="1" stop-color="#3605FD"/>
</linearGradient>
</defs>
</svg>
