<svg width="179" height="241" viewBox="0 0 179 241" fill="none" xmlns="http://www.w3.org/2000/svg">
<g filter="url(#filter0_d_152_103)">
<rect x="3" y="2" width="171" height="233" rx="8" fill="#00204C"/>
</g>
<rect x="5" y="4" width="167" height="229" rx="6" fill="#EAF2FF"/>
<rect x="11.5" y="29.5" width="154" height="50" rx="5.5" fill="white" stroke="#00204C"/>
<rect x="42.5" y="97.5" width="90" height="8" rx="2.5" fill="white" stroke="#00204C"/>
<rect x="21.5" y="116.5" width="25" height="44" rx="1.5" fill="#EAF2FF" stroke="#00204C"/>
<rect x="24.5" y="119.5" width="19" height="16" rx="0.5" fill="white" stroke="#00204C"/>
<rect x="29.5" y="154.5" width="15" height="3" rx="0.5" fill="white" stroke="#00204C"/>
<rect x="24.5" y="139.5" width="17" height="3" rx="0.5" fill="white" stroke="black"/>
<rect x="24" y="146" width="7" height="1" rx="0.5" fill="#00204C"/>
<rect x="33" y="146" width="7" height="1" rx="0.5" fill="#00204C"/>
<rect x="24" y="149" width="4" height="1" rx="0.5" fill="#00204C"/>
<rect x="30" y="149" width="10" height="1" rx="0.5" fill="#00204C"/>
<rect x="57.5" y="116.5" width="25" height="44" rx="1.5" fill="#EAF2FF" stroke="#00204C"/>
<rect x="60.5" y="119.5" width="19" height="16" rx="0.5" fill="white" stroke="#00204C"/>
<rect x="65.5" y="154.5" width="15" height="3" rx="0.5" fill="white" stroke="#00204C"/>
<rect x="60.5" y="139.5" width="17" height="3" rx="0.5" fill="white" stroke="black"/>
<rect x="60" y="146" width="7" height="1" rx="0.5" fill="#00204C"/>
<rect x="69" y="146" width="7" height="1" rx="0.5" fill="#00204C"/>
<rect x="60" y="149" width="4" height="1" rx="0.5" fill="#00204C"/>
<rect x="66" y="149" width="10" height="1" rx="0.5" fill="#00204C"/>
<rect x="93.5" y="116.5" width="25" height="44" rx="1.5" fill="#EAF2FF" stroke="#00204C"/>
<rect x="96.5" y="119.5" width="19" height="16" rx="0.5" fill="white" stroke="#00204C"/>
<rect x="101.5" y="154.5" width="15" height="3" rx="0.5" fill="white" stroke="#00204C"/>
<rect x="96.5" y="139.5" width="17" height="3" rx="0.5" fill="white" stroke="black"/>
<rect x="96" y="146" width="7" height="1" rx="0.5" fill="#00204C"/>
<rect x="105" y="146" width="7" height="1" rx="0.5" fill="#00204C"/>
<rect x="96" y="149" width="4" height="1" rx="0.5" fill="#00204C"/>
<rect x="102" y="149" width="10" height="1" rx="0.5" fill="#00204C"/>
<rect x="129.5" y="116.5" width="25" height="44" rx="1.5" fill="#EAF2FF" stroke="#00204C"/>
<rect x="132.5" y="119.5" width="19" height="16" rx="0.5" fill="white" stroke="#00204C"/>
<rect x="137.5" y="154.5" width="15" height="3" rx="0.5" fill="white" stroke="#00204C"/>
<rect x="132.5" y="139.5" width="17" height="3" rx="0.5" fill="white" stroke="black"/>
<rect x="132" y="146" width="7" height="1" rx="0.5" fill="#00204C"/>
<rect x="141" y="146" width="7" height="1" rx="0.5" fill="#00204C"/>
<rect x="132" y="149" width="4" height="1" rx="0.5" fill="#00204C"/>
<rect x="138" y="149" width="10" height="1" rx="0.5" fill="#00204C"/>
<rect x="21.5" y="177.5" width="25" height="44" rx="1.5" fill="#EAF2FF" stroke="#00204C"/>
<rect x="24.5" y="180.5" width="19" height="16" rx="0.5" fill="white" stroke="#00204C"/>
<rect x="29.5" y="215.5" width="15" height="3" rx="0.5" fill="white" stroke="#00204C"/>
<rect x="24.5" y="200.5" width="17" height="3" rx="0.5" fill="white" stroke="black"/>
<rect x="24" y="207" width="7" height="1" rx="0.5" fill="#00204C"/>
<rect x="33" y="207" width="7" height="1" rx="0.5" fill="#00204C"/>
<rect x="24" y="210" width="4" height="1" rx="0.5" fill="#00204C"/>
<rect x="30" y="210" width="10" height="1" rx="0.5" fill="#00204C"/>
<rect x="57.5" y="177.5" width="25" height="44" rx="1.5" fill="#EAF2FF" stroke="#00204C"/>
<rect x="60.5" y="180.5" width="19" height="16" rx="0.5" fill="white" stroke="#00204C"/>
<rect x="65.5" y="215.5" width="15" height="3" rx="0.5" fill="white" stroke="#00204C"/>
<rect x="60.5" y="200.5" width="17" height="3" rx="0.5" fill="white" stroke="black"/>
<rect x="60" y="207" width="7" height="1" rx="0.5" fill="#00204C"/>
<rect x="69" y="207" width="7" height="1" rx="0.5" fill="#00204C"/>
<rect x="60" y="210" width="4" height="1" rx="0.5" fill="#00204C"/>
<rect x="66" y="210" width="10" height="1" rx="0.5" fill="#00204C"/>
<rect x="93.5" y="177.5" width="25" height="44" rx="1.5" fill="#EAF2FF" stroke="#00204C"/>
<rect x="96.5" y="180.5" width="19" height="16" rx="0.5" fill="white" stroke="#00204C"/>
<rect x="101.5" y="215.5" width="15" height="3" rx="0.5" fill="white" stroke="#00204C"/>
<rect x="96.5" y="200.5" width="17" height="3" rx="0.5" fill="white" stroke="black"/>
<rect x="96" y="207" width="7" height="1" rx="0.5" fill="#00204C"/>
<rect x="105" y="207" width="7" height="1" rx="0.5" fill="#00204C"/>
<rect x="96" y="210" width="4" height="1" rx="0.5" fill="#00204C"/>
<rect x="102" y="210" width="10" height="1" rx="0.5" fill="#00204C"/>
<rect x="129.5" y="177.5" width="25" height="44" rx="1.5" fill="#EAF2FF" stroke="#00204C"/>
<rect x="132.5" y="180.5" width="19" height="16" rx="0.5" fill="white" stroke="#00204C"/>
<rect x="137.5" y="215.5" width="15" height="3" rx="0.5" fill="white" stroke="#00204C"/>
<rect x="132.5" y="200.5" width="17" height="3" rx="0.5" fill="white" stroke="black"/>
<rect x="132" y="207" width="7" height="1" rx="0.5" fill="#00204C"/>
<rect x="141" y="207" width="7" height="1" rx="0.5" fill="#00204C"/>
<rect x="132" y="210" width="4" height="1" rx="0.5" fill="#00204C"/>
<rect x="138" y="210" width="10" height="1" rx="0.5" fill="#00204C"/>
<mask id="path-69-inside-1_152_103" fill="white">
<path d="M5 10C5 6.68629 7.68629 4 11 4H166C169.314 4 172 6.68629 172 10V22H5V10Z"/>
</mask>
<path d="M5 10C5 6.68629 7.68629 4 11 4H166C169.314 4 172 6.68629 172 10V22H5V10Z" fill="#EAF2FF"/>
<path d="M5 4H172H5ZM172 23H5V21H172V23ZM5 22V4V22ZM172 4V22V4Z" fill="#00204C" mask="url(#path-69-inside-1_152_103)"/>
<rect x="157" y="15" width="7" height="1" rx="0.5" fill="#323232"/>
<rect x="157" y="10" width="7" height="1" rx="0.5" fill="#323232"/>
<rect x="157" y="12.4324" width="7" height="1" rx="0.5" fill="#323232"/>
<g filter="url(#filter1_d_152_103)">
<rect x="100.5" y="10.5" width="18" height="5" rx="1.5" fill="white" stroke="#00204C"/>
<rect x="121.5" y="10.5" width="18" height="5" rx="1.5" fill="white" stroke="#00204C"/>
<rect x="37.5" y="10.5" width="18" height="5" rx="1.5" fill="white" stroke="#00204C"/>
<rect x="58.5" y="10.5" width="18" height="5" rx="1.5" fill="white" stroke="#00204C"/>
<rect x="79.5" y="10.5" width="18" height="5" rx="1.5" fill="white" stroke="#00204C"/>
</g>
<path d="M19.4936 7.39235L17.9935 6L16.3925 7.39235L14.5141 7.05743L13.8812 8.91607L11.9465 9.52887L12.3804 11.5023L11 13.0621L12.3804 14.5439L11.9681 16.474L13.8884 17.1222L14.5213 19.0386L16.3781 18.5968L17.9928 20L19.5866 18.5968L21.4715 19.0386L22.0972 17.2146L24.0254 16.5736L23.5987 14.6074L25 13.0339L23.5987 11.4878L24.0254 9.52165L22.2039 8.8807L21.4571 7.02134L19.4936 7.39235Z" fill="url(#paint0_linear_152_103)"/>
<line x1="5" y1="86.5" x2="172" y2="86.5" stroke="#00204C"/>
<defs>
<filter id="filter0_d_152_103" x="0" y="0" width="179" height="241" filterUnits="userSpaceOnUse" color-interpolation-filters="sRGB">
<feFlood flood-opacity="0" result="BackgroundImageFix"/>
<feColorMatrix in="SourceAlpha" type="matrix" values="0 0 0 0 0 0 0 0 0 0 0 0 0 0 0 0 0 0 127 0" result="hardAlpha"/>
<feOffset dx="1" dy="2"/>
<feGaussianBlur stdDeviation="2"/>
<feComposite in2="hardAlpha" operator="out"/>
<feColorMatrix type="matrix" values="0 0 0 0 0 0 0 0 0 0 0 0 0 0 0 0 0 0 0.25 0"/>
<feBlend mode="normal" in2="BackgroundImageFix" result="effect1_dropShadow_152_103"/>
<feBlend mode="normal" in="SourceGraphic" in2="effect1_dropShadow_152_103" result="shape"/>
</filter>
<filter id="filter1_d_152_103" x="37" y="10" width="105" height="8" filterUnits="userSpaceOnUse" color-interpolation-filters="sRGB">
<feFlood flood-opacity="0" result="BackgroundImageFix"/>
<feColorMatrix in="SourceAlpha" type="matrix" values="0 0 0 0 0 0 0 0 0 0 0 0 0 0 0 0 0 0 127 0" result="hardAlpha"/>
<feOffset dx="1" dy="1"/>
<feGaussianBlur stdDeviation="0.5"/>
<feComposite in2="hardAlpha" operator="out"/>
<feColorMatrix type="matrix" values="0 0 0 0 0 0 0 0 0 0 0 0 0 0 0 0 0 0 0.25 0"/>
<feBlend mode="normal" in2="BackgroundImageFix" result="effect1_dropShadow_152_103"/>
<feBlend mode="normal" in="SourceGraphic" in2="effect1_dropShadow_152_103" result="shape"/>
</filter>
<linearGradient id="paint0_linear_152_103" x1="11" y1="6" x2="25" y2="20" gradientUnits="userSpaceOnUse">
<stop stop-color="#33378B"/>
<stop offset="1" stop-color="#64258B"/>
</linearGradient>
</defs>
</svg>
